<svg width="70" height="156" viewBox="0 0 70 156" fill="none" xmlns="http://www.w3.org/2000/svg">
<path d="M29.568 127H16.128C13.2267 127 11.3067 126.531 10.368 125.592C9.51467 124.653 9.088 122.733 9.088 119.832V41.88C9.088 38.8933 9.55733 36.9307 10.496 35.992C11.4347 34.968 13.312 34.456 16.128 34.456H29.568V127ZM61.44 70.168V77.848C61.44 80.92 61.1413 82.8827 60.544 83.736C59.9467 84.504 58.24 84.888 55.424 84.888H34.688V70.168H61.44ZM66.56 34.456V45.464C66.56 48.3653 66.0907 50.2853 65.152 51.224C64.2133 52.0773 62.2507 52.504 59.264 52.504H34.688V34.456H66.56Z" fill="url(#paint0_linear_323_3516)"/>
<defs>
<linearGradient id="paint0_linear_323_3516" x1="35" y1="0" x2="35" y2="156" gradientUnits="userSpaceOnUse">
<stop offset="0.389423" stop-color="#9747FF"/>
<stop offset="1" stop-color="#5B2B99"/>
</linearGradient>
</defs>
</svg>
